# xmcd
#
# Track frame offsets: 
#        150
#        11295
#        27187
#        39317
#        51925
#        63040
#        73687
#        91890
#        110447
#        129440
#        149485
#
# Disc length: 2208 seconds
#
# Revision: 0
# Processed by: cddbd v1.5.2PL0 Copyright (c) Steve Scherf et al.
# Submitted via: ExactAudioCopy v0.99pb5
#
DISCID=8b089e0b
DTITLE=Swing Soup - Swing Soup
DYEAR=2001
DGENRE=Swing
TTITLE0=Magic In The Moonlight
TTITLE1=Where The Blue Heron Flies
TTITLE2=Closing Time
TTITLE3=Something Else To Do
TTITLE4=Keys To My Heart
TTITLE5=High Road
TTITLE6=I Belong To You
TTITLE7=Just A Little Closer
TTITLE8=Somewhere Across The Blue
TTITLE9=I Ain't Gonna Take It
TTITLE10=Cowboy State Of Mind
EXTD=
EXTT0=
EXTT1=
EXTT2=
EXTT3=
EXTT4=
EXTT5=
EXTT6=
EXTT7=
EXTT8=
EXTT9=
EXTT10=
PLAYORDER=
